<svg width="13" height="33" viewBox="0 0 13 33" fill="none" xmlns="http://www.w3.org/2000/svg">
<path d="M3.44028 3.78496C3.44028 2.92358 3.71943 2.2177 4.27776 1.66732C4.83608 1.117 5.55393 0.841858 6.4313 0.841827C7.37246 0.841858 8.15412 1.13299 8.77626 1.71521C9.39838 2.29749 9.70943 2.95548 9.70945 3.68925C9.70943 4.23165 9.58582 4.77402 9.33857 5.31636C9.09131 5.85877 8.70047 6.29348 8.16609 6.62048C7.63168 6.94751 7.08532 7.11103 6.52701 7.11101C5.7613 7.11103 5.05543 6.78401 4.40937 6.12995C3.7633 5.47594 3.44028 4.69427 3.44028 3.78496ZM0.0903368 32.3313L0.0424805 30.7759L2.74636 30.417C3.14516 30.3054 3.42033 30.1419 3.57188 29.9265C3.72342 29.7112 3.7992 29.2286 3.7992 28.4788V28.2156C3.7992 28.0242 3.81116 27.6773 3.83509 27.1748C3.85901 26.6723 3.87098 26.2296 3.87098 25.8468C3.87098 25.5437 3.84705 24.9614 3.7992 24.1L3.82313 22.9036L3.7992 21.7789L3.84706 17.8787C3.84705 17.3842 3.7992 16.8737 3.70349 16.3473C3.52801 16.108 3.20897 15.9006 2.74636 15.7251C2.28375 15.5497 1.47816 15.4221 0.329618 15.3423V14.0023C1.97268 13.9066 3.41635 13.5636 4.66061 12.9734C5.50607 12.5905 6.42331 11.9126 7.41235 10.9395H9.01554C9.07934 12.9176 9.11124 15.4859 9.11125 18.6444L8.94375 28.4071C8.94374 29.0771 8.97566 29.6832 9.03946 30.2256C9.53398 30.4011 10.3396 30.5766 11.4562 30.752C11.8869 30.8158 12.2299 30.8956 12.4851 30.9913L12.4612 32.3073C12.0305 32.3233 11.7114 32.3313 11.5041 32.3313C11.2648 32.3313 10.8979 32.3153 10.4034 32.2834C8.77625 32.2037 6.59879 32.1638 3.87098 32.1638C3.08934 32.1638 2.33161 32.1917 1.59781 32.2475C0.864014 32.3034 0.361517 32.3313 0.0903368 32.3313Z" fill="white"/>
</svg>
