<?xml version="1.0" encoding="UTF-8"?>
<!DOCTYPE svg PUBLIC "-//W3C//DTD SVG 1.1//EN" "http://www.w3.org/Graphics/SVG/1.1/DTD/svg11.dtd">
<!-- Creator: CorelDRAW 2018 (64-Bit) -->
<svg xmlns="http://www.w3.org/2000/svg" xml:space="preserve" width="210mm" height="297mm" version="1.1" style="shape-rendering:geometricPrecision; text-rendering:geometricPrecision; image-rendering:optimizeQuality; fill-rule:evenodd; clip-rule:evenodd"
viewBox="0 0 21000 29700"
 xmlns:xlink="http://www.w3.org/1999/xlink">
 <defs>
  <style type="text/css">
   <![CDATA[
    .str1 {stroke:white;stroke-width:211.66;stroke-miterlimit:22.9256}
    .str0 {stroke:#FEFEFE;stroke-width:20;stroke-miterlimit:22.9256}
    .fil0 {fill:#FEFEFE}
    .fil1 {fill:#EC0E43}
   ]]>
  </style>
 </defs>
 <g id="Слой_x0020_1">
  <metadata id="CorelCorpID_0Corel-Layer"/>
  <path class="fil0 str0" d="M10500 8709.96c-1451.95,0 -2616.8,1164.84 -2616.8,2616.8 0,1451.96 1164.84,2616.8 2616.8,2616.8 1451.96,0 2616.8,-1164.84 2616.8,-2616.8 0,-1451.96 -1164.85,-2616.8 -2616.8,-2616.8z"/>
 </g>
 <g id="Слой_x0020_1_0">
  <metadata id="CorelCorpID_1Corel-Layer"/>
  <path id="XMLID_5_" class="fil1 str1" d="M10500 4350c-3875.98,0 -7009.57,3133.59 -7009.57,7009.57 0,1226.37 324.02,2391.21 906.45,3424.8 98.44,159.96 192.77,324.02 291.21,483.98l5811.91 10081.65 5783.2 -10081.64c98.44,-131.25 159.96,-258.4 258.4,-418.36l65.63 -98.44c582.42,-1000.78 906.45,-2165.63 906.45,-3424.8 -4.11,-3843.17 -3137.7,-6976.76 -7013.68,-6976.76zm0 3490.43c1940.04,0 3490.43,1583.2 3490.43,3490.43 0,1940.04 -1550.39,3523.24 -3490.43,3523.24 -1940.04,0 -3490.43,-1583.2 -3490.43,-3490.43 0,-1940.04 1550.39,-3523.24 3490.43,-3523.24z"/>
  <path id="XMLID_8_" class="fil1" d="M10500 6966.8c-2424.02,0 -4359.96,1968.75 -4359.96,4359.96 0,2424.02 1968.75,4359.96 4359.96,4359.96 2424.02,0 4359.96,-1968.75 4359.96,-4359.96 0,-2391.21 -1935.94,-4359.96 -4359.96,-4359.96zm0 1743.16c1451.95,0 2616.8,1164.84 2616.8,2616.8 0,1451.96 -1164.84,2616.8 -2616.8,2616.8 -1451.96,0 -2616.8,-1164.84 -2616.8,-2616.8 0,-1451.96 1164.85,-2616.8 2616.8,-2616.8z"/>
 </g>
</svg>
