<svg width="19" height="19" viewBox="0 0 19 19" fill="none" xmlns="http://www.w3.org/2000/svg">
<path d="M11.6612 16.4904L13.9175 14.25L11.6612 12.0096L12.7854 10.8933L15.0417 13.1179L17.2583 10.8933L18.3825 12.0096L16.1579 14.25L18.3825 16.4904L17.2583 17.6067L15.0417 15.3583L12.7854 17.6067L11.6612 16.4904ZM10.2917 15.7383C10.3233 15.9758 10.2442 16.2292 10.0621 16.3954C9.75332 16.7042 9.25457 16.7042 8.94582 16.3954L5.77124 13.2208C5.58916 13.0388 5.50999 12.7933 5.54166 12.5638V8.51042L1.74957 3.6575C1.48041 3.31708 1.54374 2.81833 1.88416 2.54917C2.03457 2.43833 2.20082 2.375 2.37499 2.375H13.4583C13.6325 2.375 13.7987 2.43833 13.9492 2.54917C14.2896 2.81833 14.3529 3.31708 14.0837 3.6575L10.2917 8.51042V15.7383ZM3.98999 3.95833L7.12499 7.96417V12.3342L8.70832 13.9175V7.95625L11.8433 3.95833H3.98999Z" fill="#CECCCC"/>
</svg>
